<?xml version="1.0" standalone="no"?>
<!DOCTYPE svg PUBLIC "-//W3C//DTD SVG 20010904//EN"
 "http://www.w3.org/TR/2001/REC-SVG-20010904/DTD/svg10.dtd">
<svg version="1.0" xmlns="http://www.w3.org/2000/svg"
 width="499.000000pt" height="499.000000pt" viewBox="0 0 499.000000 499.000000"
 preserveAspectRatio="xMidYMid meet">
<metadata>
Created by potrace 1.14, written by Peter Selinger 2001-2017
</metadata>
<g transform="translate(0.000000,499.000000) scale(0.100000,-0.100000)"
fill="#000000" stroke="none">
<path d="M438 3068 c-2 -7 -3 -269 -3 -583 l1 -570 582 -1 582 -1 0 26 c1 40
1 1061 1 1104 l-1 37 -579 0 c-454 0 -580 -3 -583 -12z m762 -801 c0 -7 -4 -6
-10 3 -8 12 -10 12 -10 1 0 -8 -3 -12 -6 -8 -9 9 6 28 17 22 5 -4 9 -12 9 -18z"/>
<path d="M1680 2820 l0 -260 1400 0 1400 0 0 260 0 260 -1400 0 -1400 0 0
-260z"/>
<path d="M1679 2497 c0 -3 0 -559 0 -572 1 -7 444 -11 1405 -11 1262 0 1405 1
1408 15 2 9 4 140 3 291 l0 275 -1407 2 c-775 1 -1408 1 -1409 0z m490 -192
c65 -20 66 -196 1 -230 -36 -19 -54 -19 -89 0 -36 18 -51 60 -47 132 3 49 8
61 34 84 29 26 53 30 101 14z m1843 -4 c31 -16 48 -56 48 -113 0 -40 -21 -101
-37 -111 -24 -15 -75 -16 -102 -3 -35 19 -43 36 -47 108 -3 70 24 120 71 129
35 6 32 7 67 -10z m-2072 -1 c0 -5 -23 -10 -51 -10 l-50 0 3 -47 c3 -51 1 -49
66 -52 32 -1 27 -20 -5 -19 -63 1 -63 1 -63 -52 0 -27 -4 -50 -10 -50 -6 0
-10 47 -10 120 l0 120 60 0 c33 0 60 -4 60 -10z m424 -86 c-1 -82 2 -100 17
-115 23 -23 57 -24 87 -3 20 14 22 23 22 115 0 59 4 99 10 99 6 0 10 -40 10
-100 0 -86 -3 -103 -20 -120 -44 -44 -109 -38 -133 12 -18 39 -20 208 -3 208
7 0 11 -33 10 -96z m371 -6 c28 -54 55 -101 59 -105 4 -4 6 24 5 62 -2 113 0
145 11 145 6 0 10 -47 10 -120 0 -108 -2 -120 -17 -120 -13 0 -35 33 -73 105
l-55 105 -3 -105 c-4 -147 -22 -134 -22 16 0 107 2 120 17 117 9 -2 39 -46 68
-100z m329 92 c37 -14 55 -57 52 -125 -3 -49 -7 -62 -30 -82 -15 -13 -40 -23
-57 -24 -16 -1 -39 -2 -51 -2 -22 -1 -22 1 -24 121 l-1 122 43 0 c23 0 54 -4
68 -10z m292 -105 c21 -63 34 -118 31 -122 -9 -9 -17 0 -22 26 -7 36 -15 41
-66 41 -45 0 -50 -3 -60 -27 -20 -57 -21 -59 -26 -45 -3 6 12 64 32 127 49
156 61 156 111 0z m254 106 c0 -6 -15 -11 -32 -13 l-33 -3 0 -104 c0 -61 -4
-106 -10 -108 -6 -2 -10 38 -9 107 l0 110 -33 0 c-18 0 -33 5 -33 10 0 6 32
10 75 10 41 0 75 -4 75 -9z m130 -111 c0 -73 -4 -120 -10 -120 -6 0 -10 47
-10 120 0 73 4 120 10 120 6 0 10 -47 10 -120z m521 38 c24 -46 47 -90 51 -99
17 -43 24 -20 23 77 0 67 3 104 10 104 7 0 10 -39 9 -112 -2 -138 -1 -130 -20
-126 -8 2 -38 46 -65 98 -27 52 -53 98 -57 102 -4 4 -7 -40 -7 -97 1 -66 -3
-104 -9 -102 -6 2 -10 51 -11 120 0 149 13 155 76 35z"/>
<path d="M2085 2278 c-44 -39 -41 -163 5 -188 68 -36 120 29 104 130 -11 70
-63 97 -109 58z"/>
<path d="M3945 2290 c-31 -12 -45 -34 -50 -78 -10 -102 52 -165 114 -114 17
13 23 31 25 76 2 33 -1 70 -6 82 -13 27 -55 44 -83 34z"/>
<path d="M2977 2283 c-4 -7 -2 -176 2 -194 2 -12 76 2 93 18 38 34 30 151 -12
173 -22 12 -77 13 -83 3z"/>
<path d="M3278 2227 c-10 -30 -18 -57 -18 -60 0 -4 18 -7 40 -7 22 0 40 4 40
9 0 17 -33 111 -39 111 -3 0 -14 -24 -23 -53z"/>
</g>
</svg>
